<?xml version="1.0" encoding="utf-8"?>
<!-- Generator: Adobe Illustrator 20.1.0, SVG Export Plug-In . SVG Version: 6.00 Build 0)  -->
<svg version="1.1" id="Layer_1" xmlns="http://www.w3.org/2000/svg" xmlns:xlink="http://www.w3.org/1999/xlink" x="0px" y="0px"
	 viewBox="0 0 960 560" style="enable-background:new 0 0 960 560;" xml:space="preserve">
<style type="text/css">
	.st0{fill:#F9F7F7;}
	.st1{font-family:'Pacifico';}
	.st2{font-size:56.3519px;}
	.st3{fill:#F7F7F7;}
</style>
<text transform="matrix(1.2163 0 0 1 230.6807 220.7437)" class="st0 st1 st2">Cooking Paleo</text>
<path class="st3" d="M241.3,122.5c2.6,3.9,3.2,7.7-1.3,11.1c-0.1-0.8-0.2-1.5-0.3-2.2c-0.5-3.3-2.4-5.7-5.8-7.3
	c-3.6-1.6-7.5-1.6-11.2-0.8c-4.3,0.7-8.2,2.3-11.8,4.5c-3.6,2.2-6.2,5-7,8.7c-0.6,2.5,0.1,4.8,2.3,6.7c0.2,0.2,0.4,0.3,0.6,0.6
	c-1.3,0.4-2.4,0.2-3.5-0.1c-1.8-0.5-3.4-1.1-4.2-2.8c-0.3-0.7-1.1-0.7-1.7-0.3c-1.2,0.6-2.4,1.1-3.5,1.9c-1.7,1.2-2.9,2.8-3.5,4.7
	c-0.8,2.8,0.3,5.1,2.5,7.3c2.2,2,4.9,3.1,8,3.2c1.5,0.1,3,0,4.4-0.1c0.2,0,0.4-0.1,0.8-0.2c-2.8-1.7-2.8-4.2-3.1-6.6
	c0.7,0.8,1.4,1.7,2.2,2.5c1.3,1.3,2.9,2,5.2,1.7c-0.3-0.2-0.5-0.4-0.7-0.6c-1.4-0.9-2.6-1.9-3.4-3.2c-1-1.7-1-3.3-0.5-5.3
	c0.7,1.1,1.2,2,1.8,2.9c1.1,1.4,2.5,2.5,4.6,2.7c2.4,0.2,4.4-0.6,5.8-2.2c1.1-1.2,0.8-2.7,0.1-4c-0.6-1.1-1.4-2-2.1-3.1
	c-0.6-1.1-0.6-2.1,0-3.4c3.6,6.4,9.6,8,17.2,7.4c-0.4,0.3-0.7,0.8-1.2,1.1c-1.4,0.7-2.8,1.2-4.2,1.8c-4,1.6-7.5,3.5-9.9,6.7
	c-1.6,2.1-1.4,4.4,0,6.5c1.5,2.4,3,4.7,4.6,7.1c0.9,1.4,1.8,2.7,2.7,4.2c0.4-0.4,0.8-0.7,1.2-1c1.4-1.3,2.7-2.6,4-3.8
	c1.1-1.1,2.5-1.8,4.1-2.4c2-0.7,4.2-1.1,6.4-1.2c0.6,0,1.3,0.1,1.9,0.2c0,0.1,0,0.2,0.1,0.2c-0.7,0.3-1.4,0.7-2,1.1
	c-1.3,0.8-2.7,1.6-3.9,2.5c-1.2,0.9-2.3,1.9-3.3,2.9c-2,2.1-3.4,4.6-3.8,7.4c-0.2,1.2-0.1,2.5-0.2,3.7c0.1,0,0.2,0.1,0.3,0.1
	c0.1-0.1,0.3-0.2,0.3-0.3c2.4-3.8,5.4-7.2,8.9-10.3c1.4-1.2,2.9-2.3,4.4-3.4c2.9-2.2,6.1-4,9.4-5.5c2.1-0.9,4.2-1.6,6.4-2.4
	c0.7-0.2,0.7-0.6,0.4-1.1c-1-1.3-2-2.6-3-3.9c-2.1-2.9-4.1-5.9-6.2-8.8c-0.4-0.6-0.5-1,0.4-1.4c1.4-0.7,2.7-1.4,4.2-2.1
	c3.6,6.6,7.2,13.1,10.7,19.7c-0.1,0.1-0.2,0.2-0.3,0.2c-2.3,0.2-4.4,1-6.5,1.9c-1.9,0.8-3.6,1.8-5.4,2.9c-1.4,0.8-2.8,1.7-4.1,2.7
	c-1.8,1.4-3.6,2.8-5.3,4.3c-3.6,3.3-6.7,6.9-9.3,10.7c-1.7,2.5-3.4,5-4.2,7.9c-0.2-0.2-0.4-0.3-0.5-0.5c-1.2-2.1-2.4-4.2-3.5-6.4
	c-1.1-2-2.2-4.1-3.3-6.1c-1.1-2-2.1-3.9-3.2-5.9c-1.2-2.2-2.5-4.4-3.7-6.7c-0.8-1.6-1.7-2.9-3.2-4.2c-2.1-1.8-4.6-2.9-7.6-2.8
	c-2.1,0.1-4.2,0.2-6.3,0.4c-4.8,0.7-8.5-1-11.9-3.6c-2-1.5-3.6-3.3-4.5-5.3c-0.8-1.6-0.8-3.3-0.3-5.1c1.1-4.4,4.2-7.6,8.8-9.6
	c1-0.5,2.1-1,3.1-1.4c2.3-1.1,3.7-2.8,4.5-4.8c2-4.8,6-8.2,11-10.8c4.2-2,8.7-3.3,13.5-3.7c4-0.3,7.9-0.1,11.8,1.1
	c1.8,0.6,3.5,0.4,5.2,0c2.4-0.5,4.8-1.1,7.3-1.4c6-0.7,10.4,0.9,13.5,5.9c1,1.6,1.2,3.3,1.2,5c0.1,2.4-0.6,4.5-2.1,6.5
	c-1.6,2.1-3.7,3.8-5.9,5.4c-2.7,1.9-5.8,3.3-8.8,4.7c-0.3,0.2-0.7,0.2-1,0.3c0-0.1-0.1-0.1-0.1-0.2c0.2-0.2,0.4-0.4,0.6-0.6
	c2.3-2,4.7-4.1,6.9-6.2c2.2-2.1,3.4-4.7,3.6-7.5c0.2-4.2-2.5-7.9-8-8.6c-2-0.2-3.9-0.1-5.8,0.3C242.1,122.1,241.8,122.3,241.3,122.5
	z"/>
<path d="M365,285"/>
</svg>
