<?xml version="1.0" encoding="utf-8"?>
<!-- Generator: Adobe Illustrator 20.1.0, SVG Export Plug-In . SVG Version: 6.00 Build 0)  -->
<svg version="1.1" id="Layer_1" xmlns="http://www.w3.org/2000/svg" xmlns:xlink="http://www.w3.org/1999/xlink" x="0px" y="0px"
	 viewBox="0 0 960 560" style="enable-background:new 0 0 960 560;" xml:space="preserve">
<style type="text/css">
	.st0{fill:#F9F7F7;}
	.st1{font-family:'Pacifico';}
	.st2{font-size:69px;}
	.st3{fill:#F7F7F7;}
</style>
<text transform="matrix(1 0 0 1 231 244)" class="st0 st1 st2">Cooking Paleo</text>
<path class="st3" d="M241.7,123.7c2.6,4.8,3.2,9.4-1.3,13.6c-0.1-1-0.2-1.8-0.3-2.7c-0.5-4-2.4-7-5.8-8.9c-3.6-2-7.5-1.9-11.3-1
	c-4.3,0.9-8.3,2.8-11.9,5.5c-3.6,2.7-6.2,6.1-7,10.6c-0.6,3,0.1,5.9,2.3,8.2c0.2,0.2,0.4,0.4,0.6,0.7c-1.3,0.5-2.4,0.3-3.5-0.1
	c-1.8-0.6-3.4-1.4-4.2-3.4c-0.3-0.8-1.1-0.8-1.7-0.4c-1.2,0.7-2.4,1.4-3.5,2.3c-1.7,1.5-2.9,3.4-3.5,5.7c-0.8,3.4,0.3,6.3,2.5,8.9
	c2.2,2.5,4.9,3.8,8.1,3.9c1.5,0.1,3,0,4.4-0.1c0.2,0,0.4-0.1,0.8-0.2c-2.8-2.1-2.8-5.1-3.1-8.1c0.7,1,1.4,2.1,2.2,3
	c1.3,1.6,2.9,2.5,5.2,2.1c-0.3-0.3-0.5-0.5-0.7-0.7c-1.4-1.1-2.6-2.3-3.4-3.9c-1-2.1-1-4.1-0.5-6.5c0.7,1.3,1.2,2.4,1.8,3.5
	c1.1,1.7,2.5,3.1,4.6,3.3c2.4,0.2,4.4-0.7,5.8-2.7c1.1-1.5,0.8-3.3,0.1-4.9c-0.6-1.3-1.4-2.5-2.1-3.8c-0.6-1.3-0.6-2.6,0-4.2
	c3.6,7.8,9.7,9.8,17.3,9.1c-0.4,0.4-0.7,1-1.2,1.3c-1.4,0.8-2.8,1.5-4.2,2.2c-4,1.9-7.6,4.3-10,8.2c-1.6,2.6-1.4,5.4,0,8
	c1.5,2.9,3,5.8,4.6,8.7c0.9,1.7,1.8,3.3,2.7,5.1c0.4-0.5,0.8-0.8,1.2-1.2c1.4-1.6,2.7-3.2,4-4.7c1.1-1.3,2.5-2.2,4.1-2.9
	c2-0.9,4.2-1.4,6.4-1.5c0.6,0,1.3,0.1,1.9,0.2c0,0.1,0,0.2,0.1,0.3c-0.7,0.4-1.4,0.8-2,1.3c-1.3,1-2.7,1.9-3.9,3s-2.3,2.3-3.3,3.6
	c-2,2.6-3.4,5.6-3.8,9c-0.2,1.5-0.1,3-0.2,4.5c0.1,0,0.2,0.1,0.3,0.1c0.1-0.1,0.3-0.2,0.3-0.4c2.4-4.7,5.4-8.8,9-12.6
	c1.4-1.5,2.9-2.8,4.4-4.2c2.9-2.7,6.1-4.9,9.5-6.7c2.1-1.1,4.2-2,6.4-2.9c0.7-0.3,0.7-0.7,0.4-1.3c-1-1.6-2-3.2-3-4.8
	c-2.1-3.6-4.1-7.2-6.2-10.8c-0.4-0.7-0.5-1.2,0.4-1.7c1.4-0.8,2.7-1.7,4.2-2.6c3.6,8.1,7.2,16.1,10.8,24.1c-0.1,0.1-0.2,0.2-0.3,0.2
	c-2.3,0.3-4.4,1.2-6.5,2.3c-1.9,1-3.6,2.2-5.4,3.5c-1.4,1-2.8,2.1-4.1,3.3c-1.8,1.7-3.6,3.4-5.3,5.3c-3.6,4-6.7,8.4-9.4,13.1
	c-1.7,3-3.4,6.1-4.2,9.7c-0.2-0.3-0.4-0.4-0.5-0.6c-1.2-2.6-2.4-5.2-3.5-7.8c-1.1-2.5-2.2-5-3.3-7.5c-1.1-2.4-2.1-4.8-3.2-7.2
	c-1.2-2.7-2.5-5.4-3.7-8.2c-0.8-1.9-1.7-3.6-3.2-5.1c-2.1-2.2-4.6-3.5-7.7-3.4c-2.1,0.1-4.2,0.2-6.3,0.5c-4.8,0.8-8.6-1.2-12-4.4
	c-2-1.8-3.6-4-4.5-6.5c-0.8-2-0.8-4.1-0.3-6.2c1.1-5.4,4.2-9.3,8.9-11.8c1-0.6,2.1-1.2,3.1-1.7c2.3-1.3,3.7-3.4,4.5-5.9
	c2-5.9,6-10.1,11.1-13.2c4.2-2.5,8.8-4,13.6-4.5c4-0.4,8-0.1,11.9,1.3c1.8,0.7,3.5,0.5,5.2,0c2.4-0.6,4.8-1.4,7.3-1.7
	c6-0.8,10.5,1.1,13.6,7.2c1,1.9,1.2,4,1.2,6.1c0.1,2.9-0.6,5.5-2.1,7.9c-1.6,2.6-3.7,4.7-5.9,6.6c-2.7,2.3-5.8,4.1-8.9,5.8
	c-0.3,0.2-0.7,0.2-1,0.4c0-0.1-0.1-0.1-0.1-0.2c0.2-0.2,0.4-0.5,0.6-0.7c2.3-2.5,4.7-5,6.9-7.6s3.4-5.7,3.6-9.2
	c0.2-5.2-2.5-9.7-8.1-10.5c-2-0.3-3.9-0.1-5.8,0.4C242.5,123.2,242.2,123.4,241.7,123.7z"/>
<path d="M365,285"/>
</svg>
